<svg xmlns="http://www.w3.org/2000/svg" fill="none" viewBox="0 0 300 210">
  <mask id="9v3ua-HbMa" maskUnits="userSpaceOnUse" x="16" y="0" width="284" height="192">
    <rect x="16" width="284" height="192" rx="8" fill="#fff"/>
  </mask>
  <g mask="url(#9v3ua-HbMa)">
    <path opacity=".4" d="M205 50.184l-57.791 127.442 55.948.093a128.87 128.87 0 01-10.425 50.558 128.507 128.507 0 01-29.415 42.361 128.01 128.01 0 01-43.658 27.327 127.697 127.697 0 01-50.854 7.881C3.21 302.702-49.965 249.174-52.868 183.34a128.896 128.896 0 018.036-50.99 128.562 128.562 0 0127.386-43.703 128.068 128.068 0 0142.318-29.363A127.708 127.708 0 0175.292 49l-.092 53.621L205 50.184z" fill="#DAF3FF"/>
  </g>
</svg>
