<svg xmlns="http://www.w3.org/2000/svg" fill="none" viewBox="0 0 54 54">
  <path d="M27 54a27 27 0 1127-27 27.032 27.032 0 01-27 27zm0-50.206A23.205 23.205 0 1050.206 27 23.235 23.235 0 0027 3.794z" fill="#2AAA2B"/>
  <path d="M18.461 24.185a.762.762 0 00.72-.677.609.609 0 00-.72-.547l-1.44.137a100.812 100.812 0 00-5.555.723.836.836 0 00-.72.767.56.56 0 00.72.522l.72-.119c0 4.224-.013 8.447-.04 12.669l-.72.205a.986.986 0 00-.72.86c0 .36.314.548.72.429a54.55 54.55 0 016.955-1.642.828.828 0 00.721-.72c0-.335-.324-.562-.72-.497-.245.036-.486.08-.72.12l.054-12.158.745-.072zm12.29-.371a.646.646 0 00.72-.57.72.72 0 00-.72-.625c-.486 0-.975-.03-1.461-.037a121.2 121.2 0 00-4.169 0c-.486 0-.976.026-1.462.044a.72.72 0 00-.72.63.64.64 0 00.72.568l.72-.025-.018 11.84-.72.047a.72.72 0 00-.72.652c0 .335.328.572.72.547.49-.036.983-.064 1.473-.086a58.51 58.51 0 014.208-.022c.49 0 .983.04 1.473.069a.625.625 0 00.72-.551.72.72 0 00-.72-.645l-.72-.035V23.777l.676.036zm12.199 1.202a.563.563 0 00.72-.522.832.832 0 00-.72-.76c-.48-.071-.958-.143-1.44-.208a105.381 105.381 0 00-5.555-.612.614.614 0 00-.72.55.752.752 0 00.72.667l.72.068.05 12.118-.72-.112c-.403-.061-.72.166-.72.5a.818.818 0 00.72.72c.486.076.972.159 1.44.25a55.387 55.387 0 015.548 1.317c.392.115.72-.076.72-.432a.988.988 0 00-.72-.85c-.234-.065-.472-.133-.72-.194l-.043-12.6.72.1zM11.16 40.68c.732.85 1.53 1.642 2.387 2.365a48.663 48.663 0 0127-.248 20.907 20.907 0 002.347-2.408 52.919 52.919 0 00-31.734.291z" fill="#97CC00"/>
  <path d="M14.81 44.046a20.72 20.72 0 003.676 2.106 43.698 43.698 0 0117.172-.166 20.791 20.791 0 003.636-2.16 47.027 47.027 0 00-24.484.22zm30.077-25.193a.862.862 0 00-.36-.688c-5.63-4.367-11.38-7.794-17.05-11.207a.81.81 0 00-.76 0c-5.673 3.413-11.422 6.84-17.049 11.225a.856.856 0 00-.36.684v2.671a.62.62 0 00.72.637 114.803 114.803 0 0134.117-.021.62.62 0 00.67-.37.624.624 0 00.05-.267c.026-.89.022-1.775.022-2.664zm-13.716-4.094a4.616 4.616 0 11-4.615-4.615v1.926l4.68-1.89-2.077 4.58h2.012z" fill="#97CC00"/>
</svg>
